<svg xmlns="http://www.w3.org/2000/svg" width="144.691" height="43.05" viewBox="0 0 144.691 43.05">
  <g id="Calque_2" data-name="Calque 2" transform="translate(0.001 0)">
    <g id="Calque_1" data-name="Calque 1">
      <path id="Tracé_33" data-name="Tracé 33" d="M42.29,40.93h0l-2.11,2h0L38,40.87,17,19.81,4.51,32.25,2.23,34.53h0v-.12L1.07,31.5,3.51,29,17,15.56,40.17,38.81Z" fill="#f9cb3a"/>
      <path id="Tracé_34" data-name="Tracé 34" d="M17,19.81,4.51,32.25,2.23,34.53h0v-.12L1.07,31.5l2.59-1.89Z" fill="#f9cb3a"/>
      <path id="Tracé_35" data-name="Tracé 35" d="M40.07,43.05h.06l2.13-2h0" fill="none"/>
      <path id="Tracé_36" data-name="Tracé 36" d="M40.07,43.05h.06l2.13-2h0" fill="none"/>
      <path id="Tracé_37" data-name="Tracé 37" d="M45.66,30.49l-7.23-7.23-5.37,5.38-2.13-2.12,7.49-7.51,9.36,9.36Z" fill="#f9cb3a"/>
      <path id="Tracé_38" data-name="Tracé 38" d="M24.39,0A24.38,24.38,0,0,0,1.05,31.46h0a20.17,20.17,0,0,0,1.11,2.92.18.18,0,0,0,0,.11l2.28-2.28a20,20,0,0,1-.87-2.68,5.846,5.846,0,0,1-.13-.57A20.7,20.7,0,0,1,3,24.38a21.39,21.39,0,0,1,42.78,0,13.292,13.292,0,0,1-.09,1.9,20.33,20.33,0,0,1-.63,3.61,21.38,21.38,0,0,1-4.89,8.92A21.08,21.08,0,0,1,38,40.87L40.13,43h0a25.28,25.28,0,0,0,2.11-2h0A24.37,24.37,0,0,0,24.39,0Z" fill="#f9cb3a"/>
      <text id="DPS_65" data-name="DPS 65" transform="translate(58.69 33.07)" fill="#fff" font-size="24.74" font-family="Poppins-Bold, Poppins" font-weight="700"><tspan x="0" y="0">DPS 65</tspan></text>
    </g>
  </g>
</svg>
