<svg xmlns="http://www.w3.org/2000/svg" width="32.002" height="32.062" viewBox="0 0 32.002 32.062">
  <path id="Icon_feather-phone" data-name="Icon feather-phone" d="M33.167,25.505V30.03a3.017,3.017,0,0,1-3.288,3.017,29.851,29.851,0,0,1-13.017-4.631,29.414,29.414,0,0,1-9.05-9.05A29.851,29.851,0,0,1,3.18,6.288,3.017,3.017,0,0,1,6.182,3h4.525a3.017,3.017,0,0,1,3.017,2.594A19.368,19.368,0,0,0,14.78,9.833a3.017,3.017,0,0,1-.679,3.183l-1.916,1.916a24.134,24.134,0,0,0,9.05,9.05l1.916-1.916a3.017,3.017,0,0,1,3.183-.679,19.368,19.368,0,0,0,4.239,1.056,3.017,3.017,0,0,1,2.594,3.062Z" transform="translate(-2.167 -2)" fill="none" stroke="#434343" stroke-linecap="round" stroke-linejoin="round" stroke-width="2"/>
</svg>
