<svg id="Calque_2" data-name="Calque 2" xmlns="http://www.w3.org/2000/svg" width="292.333" height="70.983" viewBox="0 0 292.333 70.983">
  <g id="Calque_1" data-name="Calque 1">
    <path id="Tracé_47" data-name="Tracé 47" d="M190.934,32.14V48.375h-16.8V32.14Z" transform="translate(101.399 18.716)" fill="#f39200"/>
    <path id="Tracé_48" data-name="Tracé 48" d="M54.21,69.032H43.387L10.823,19.569V69.032H0V2.1H10.823L43.387,51.753V2.1H54.21Z" transform="translate(0 1.223)" fill="#1d1d1b"/>
    <path id="Tracé_49" data-name="Tracé 49" d="M81.117,14.191a23.165,23.165,0,0,1,9.494,9.3,28.577,28.577,0,0,1,3.418,14.241,28.767,28.767,0,0,1-3.418,14.273,23.165,23.165,0,0,1-9.494,9.3,30.46,30.46,0,0,1-27.295,0,23.482,23.482,0,0,1-9.494-9.352A28.482,28.482,0,0,1,40.863,37.72a28.26,28.26,0,0,1,3.465-14.241,23.561,23.561,0,0,1,9.494-9.3A30.46,30.46,0,0,1,81.117,14.191Zm-21.361,8.07A13.988,13.988,0,0,0,54.107,28.1a19.985,19.985,0,0,0-2.136,9.636,19.921,19.921,0,0,0,2.136,9.684,14.051,14.051,0,0,0,5.649,5.791,16.519,16.519,0,0,0,15.38,0,14.051,14.051,0,0,0,5.649-5.791,19.921,19.921,0,0,0,2.136-9.684A19.985,19.985,0,0,0,80.785,28.1a13.988,13.988,0,0,0-5.649-5.839,16.519,16.519,0,0,0-15.38,0Z" transform="translate(23.791 6.379)" fill="#1d1d1b"/>
    <path id="Tracé_50" data-name="Tracé 50" d="M110.681,70.255l-18.8-23.26v23.26H81.06V0H91.883V40.254l18.608-22.311H123.5L100.712,43.957l23.355,26.3Z" transform="translate(47.203)" fill="#1d1d1b"/>
    <path id="Tracé_51" data-name="Tracé 51" d="M140.754,59.039v9.4h-6.646q-8.355,0-12.659-4.035t-4.32-13.434V25.336h-7.5V16.127h7.5V3.12h10.918V16.127h12.659v9.209H128.048V51.159q0,4.462,1.582,6.171t5.9,1.709Z" transform="translate(63.84 1.817)" fill="#1d1d1b"/>
    <path id="Tracé_52" data-name="Tracé 52" d="M174.3,14.171a23.165,23.165,0,0,1,9.494,9.3,28.577,28.577,0,0,1,3.418,14.241,28.766,28.766,0,0,1-3.418,14.336,23.165,23.165,0,0,1-9.494,9.3,30.46,30.46,0,0,1-27.295,0A23.482,23.482,0,0,1,137.508,52a28.482,28.482,0,0,1-3.465-14.241,28.26,28.26,0,0,1,3.465-14.241,23.561,23.561,0,0,1,9.494-9.3,30.46,30.46,0,0,1,27.295,0Zm-21.33,8.007a13.988,13.988,0,0,0-5.649,5.839,19.984,19.984,0,0,0-2.136,9.636,19.921,19.921,0,0,0,2.1,9.747,14.051,14.051,0,0,0,5.681,5.728,16.519,16.519,0,0,0,15.38,0,14.051,14.051,0,0,0,5.617-5.728,19.921,19.921,0,0,0,2.136-9.684,19.985,19.985,0,0,0-2.136-9.636,13.988,13.988,0,0,0-5.649-5.839,16.519,16.519,0,0,0-15.38,0Z" transform="translate(78.051 6.399)" fill="#1d1d1b"/>
    <path id="Tracé_53" data-name="Tracé 53" d="M188.644,34.14V50.375h-16.8V34.14Z" transform="translate(100.066 19.88)"/>
  </g>
</svg>
