<svg xmlns="http://www.w3.org/2000/svg" width="370.09" height="103.018" viewBox="0 0 370.09 103.018">
  <g id="Calque_2" data-name="Calque 2" transform="translate(11.641 -15)">
    <g id="Calque_1" data-name="Calque 1" transform="translate(-11.641 15)">
      <text id="Sans_Nuage" data-name="Sans Nuage" transform="translate(121.09 64.515)" fill="#3c3b35" font-size="45" font-family="Quicksand-Regular, Quicksand"><tspan x="0" y="0">San</tspan><tspan y="0" letter-spacing="0.01em">s</tspan><tspan y="0" xml:space="preserve"> Nua</tspan><tspan y="0" letter-spacing="-0.02em">g</tspan><tspan y="0">e</tspan></text>
      <circle id="Ellipse_34" data-name="Ellipse 34" cx="51.509" cy="51.509" r="51.509" transform="translate(0 0)" fill="#72c0b1"/>
      <path id="Tracé_39" data-name="Tracé 39" d="M58.374,69.972H32.207a11.439,11.439,0,1,1,0-22.869h.206A18.5,18.5,0,0,1,68.37,44.208h.881A11.439,11.439,0,0,1,80.69,55.619q0,.253,0,.506v.141a7.045,7.045,0,0,1,4.057,5.518v1.8a7.289,7.289,0,0,1-7.233,6.389H69.326" transform="translate(-1.291 -1.974)" fill="none" stroke="#fff" stroke-linecap="round" stroke-miterlimit="10" stroke-width="2"/>
      <line id="Ligne_49" data-name="Ligne 49" transform="translate(61.899 67.998)" fill="none" stroke="#fff" stroke-linecap="round" stroke-miterlimit="10" stroke-width="2"/>
      <line id="Ligne_50" data-name="Ligne 50" x1="0.112" transform="translate(67.885 67.998)" fill="none" stroke="#fff" stroke-linecap="round" stroke-miterlimit="10" stroke-width="2"/>
    </g>
  </g>
</svg>
